<svg width="80" height="35" viewBox="0 0 80 35" fill="none" xmlns="http://www.w3.org/2000/svg">
<path fill-rule="evenodd" clip-rule="evenodd" d="M50.9563 16.1094C54.682 19.0441 61.2251 25.7354 55.2383 29.8902C51.4285 32.5333 44.8261 32.7231 41.3339 29.3847C36.9573 25.2005 40.5761 19.4438 44.1764 16.2527C45.2125 15.3337 46.3284 14.4961 47.4956 13.719C48.6929 14.4497 49.8532 15.2405 50.9563 16.1094ZM79.7185 1.85189C69.0041 1.9484 57.4439 4.56144 47.9981 10.0849C45.8273 8.91053 43.6821 7.96229 41.8312 7.26256C31.0782 3.19858 17.7109 2.251 6.53054 5.07155C5.30885 5.38019 5.20023 6.90164 5.89976 7.66528C5.46204 7.28689 5.02887 6.90299 4.60024 6.51357C5.66052 5.43687 6.85587 4.56085 8.25466 3.84695C9.10957 3.41099 10.1416 3.19406 10.9481 2.7003C11.4285 2.40633 11.3354 2.01568 11.9025 1.7666C12.0834 1.68718 12.1224 1.39809 11.8909 1.34862C11.2569 1.21364 10.9664 0.749421 10.3267 0.64102C9.31888 0.469829 7.63705 1.05046 6.72709 1.39542C4.46084 2.25451 2.50523 3.69727 0.854081 5.45172C0.164687 6.18472 0.307453 7.23848 0.945518 7.93789C2.50947 9.65273 4.31693 11.1458 6.19558 12.5021C7.8235 13.6769 9.59696 15.1167 11.5978 15.4973C13.1665 15.7966 14.1582 13.9486 13.0412 12.8053C11.6785 11.4098 9.72816 10.6159 8.14627 9.46803C7.46799 8.97597 6.82432 8.45001 6.19145 7.91183C6.41858 8.04956 6.69368 8.12451 7.01505 8.10135C17.398 7.35225 27.2457 6.36111 37.4402 9.33537C39.9444 10.0649 42.3966 11.013 44.7332 12.1863C44.5373 12.3234 44.3336 12.4531 44.1386 12.5934C37.7389 17.2177 31.9648 27.3009 40.7044 32.9568C46.9071 36.9722 60.6721 35.317 60.9328 26.0242C61.0996 20.0868 56.2477 15.2099 50.8047 11.7366C53.7807 10.1273 56.9421 8.80566 59.9725 7.57801C66.2894 5.01784 73.005 3.35143 79.7286 2.2855C79.9952 2.24301 80.0067 1.84909 79.7185 1.85189Z" fill="black"/>
</svg>
